<?xml version="1.0" encoding="UTF-8"?>
<!DOCTYPE svg PUBLIC "-//W3C//DTD SVG 1.1//EN" "http://www.w3.org/Graphics/SVG/1.1/DTD/svg11.dtd">
<!-- Creator: CorelDRAW 2019 (64-Bit) -->
<svg xmlns="http://www.w3.org/2000/svg" xml:space="preserve" width="2160px" height="2160px" version="1.1" shape-rendering="geometricPrecision" text-rendering="geometricPrecision" image-rendering="optimizeQuality" fill-rule="evenodd" clip-rule="evenodd"
viewBox="0 0 2160 2160"
 xmlns:xlink="http://www.w3.org/1999/xlink"
 xmlns:xodm="http://www.corel.com/coreldraw/odm/2003">
 <g id="Layer_x0020_1">
  <metadata id="CorelCorpID_0Corel-Layer"/>
  <path fill="none" fill-opacity="0.949020" stroke="white" stroke-width="30" stroke-miterlimit="2.61313" stroke-opacity="0.949020" d="M1870.54 1139.66c-10.06,-161.66 -70.06,-321.63 -182.16,-455.23 -278.67,-332.11 -773.82,-375.43 -1105.93,-96.76 -332.11,278.68 -375.43,773.82 -96.75,1105.94 13.87,16.53 34.39,38.82 49.58,54.16l-326.28 291.73 550.9 -136.9c240.77,110.38 518.27,91.01 739.44,-45.55 32.04,-19.78 62.89,-42.03 92.29,-66.69 198.51,-166.57 293.85,-410.49 278.91,-650.7"/>
  <path fill="none" stroke="white" stroke-width="30" stroke-miterlimit="2.61313" d="M1086 106c323.09,0 585,48.8 585,109 0,60.2 -261.91,109 -585,109 -323.09,0 -585,-48.8 -585,-109 0,-60.2 261.91,-109 585,-109z"/>
  <path fill="none" stroke="white" stroke-width="30" stroke-miterlimit="2.61313" d="M545 1007c0,0 174,-257.24 388,0"/>
  <path fill="none" stroke="white" stroke-width="30" stroke-miterlimit="2.61313" d="M1249 1006.33c0,0 174,-257.24 388,0"/>
  <path fill="none" stroke="white" stroke-width="30" stroke-miterlimit="2.61313" d="M1396 1447c0,0 -272.66,340 -608,0"/>
 </g>
</svg>
